<?xml version="1.0" standalone="no"?>
<!DOCTYPE svg PUBLIC "-//W3C//DTD SVG 20010904//EN"
 "http://www.w3.org/TR/2001/REC-SVG-20010904/DTD/svg10.dtd">
<svg version="1.0" xmlns="http://www.w3.org/2000/svg"
 width="1640.000000pt" height="1640.000000pt" viewBox="0 0 1640.000000 1640.000000"
 preserveAspectRatio="xMidYMid meet">
<metadata>
Created by potrace 1.14, written by Peter Selinger 2001-2017
</metadata>
<g transform="translate(0.000000,1640.000000) scale(0.100000,-0.100000)"
fill="#000000" stroke="none">
<path d="M7739 12215 c-2 -2 -62 -6 -134 -9 -71 -4 -151 -8 -177 -10 -130 -11
-206 -18 -233 -21 -16 -3 -59 -7 -95 -10 -36 -3 -74 -7 -86 -9 -12 -2 -45 -7
-75 -11 -30 -3 -65 -8 -79 -10 -34 -6 -76 -13 -130 -20 -25 -3 -52 -8 -60 -10
-8 -3 -35 -7 -60 -10 -25 -3 -52 -8 -60 -10 -8 -2 -31 -7 -50 -10 -28 -4 -144
-27 -260 -50 -8 -2 -15 -4 -15 -5 0 -1 -9 -3 -20 -4 -11 -2 -60 -13 -110 -25
-49 -12 -97 -24 -105 -26 -51 -11 -303 -79 -370 -101 -44 -13 -82 -25 -85 -25
-2 0 -24 -7 -47 -15 -24 -9 -51 -17 -61 -19 -9 -2 -22 -7 -27 -10 -5 -3 -18
-8 -28 -10 -23 -4 -379 -132 -417 -149 -52 -24 -338 -147 -373 -160 -18 -7
-38 -18 -44 -24 -7 -7 -18 -12 -24 -12 -11 0 -369 -179 -484 -242 -183 -101
-310 -177 -490 -294 -41 -27 -83 -53 -92 -59 -21 -12 -115 -76 -174 -120 -23
-16 -54 -39 -70 -50 -66 -47 -209 -160 -212 -167 -2 -4 -10 -8 -18 -8 -8 0
-14 -4 -14 -8 0 -4 -21 -24 -47 -45 -27 -20 -61 -48 -78 -62 -16 -15 -59 -52
-95 -83 -142 -125 -280 -259 -440 -431 -113 -121 -145 -163 -89 -118 50 40 50
40 104 77 28 19 52 37 53 42 2 4 9 8 15 8 6 0 20 8 31 19 21 19 364 251 371
251 3 0 42 25 89 55 46 30 89 55 94 55 6 0 12 4 14 8 4 10 225 137 413 237 50
26 105 56 123 67 17 11 32 17 32 13 0 -3 12 2 28 13 32 22 119 64 128 62 4 -1
10 2 13 7 3 5 85 44 181 88 290 130 304 136 440 190 52 20 104 41 115 46 27
11 154 59 185 69 14 5 95 33 180 63 85 29 158 55 162 56 4 1 13 3 20 5 7 3 54
16 103 31 50 15 97 29 105 32 8 4 20 7 25 9 6 1 69 19 140 38 72 20 139 39
150 41 11 3 67 16 125 31 109 27 131 32 165 39 37 9 70 16 80 19 26 7 127 28
147 30 13 2 34 6 48 10 14 3 36 8 50 10 14 3 50 9 80 15 30 6 69 13 85 16 17
2 40 7 52 9 11 3 43 8 70 12 26 3 57 9 68 11 11 2 31 6 45 7 67 8 126 17 140
21 8 2 42 6 75 10 33 3 74 8 90 11 17 3 48 7 70 9 22 1 63 6 90 9 46 6 74 8
225 21 65 6 155 12 305 22 146 10 914 9 1085 0 131 -8 154 -9 290 -22 36 -3
94 -8 130 -10 36 -3 85 -8 110 -11 25 -3 61 -8 80 -10 94 -9 254 -30 300 -39
14 -3 41 -7 60 -9 63 -8 103 -15 415 -71 17 -3 37 -8 46 -11 9 -2 34 -7 55 -9
22 -3 53 -9 69 -15 17 -5 57 -14 90 -20 33 -6 71 -15 85 -20 14 -5 39 -11 55
-14 17 -3 48 -10 70 -16 22 -6 51 -13 65 -16 39 -8 383 -104 400 -111 18 -7
14 -6 69 -22 61 -17 342 -110 366 -120 11 -5 34 -13 50 -19 17 -5 68 -24 115
-42 47 -18 94 -36 105 -40 11 -4 31 -12 45 -18 14 -6 50 -21 80 -33 61 -23
104 -41 166 -70 23 -10 44 -19 47 -19 3 0 39 -15 79 -34 40 -19 109 -51 153
-71 78 -36 344 -169 415 -207 61 -33 154 -83 200 -110 25 -14 63 -35 85 -48
102 -57 237 -138 313 -187 45 -29 84 -53 87 -53 2 0 61 -38 130 -85 70 -47
131 -85 135 -85 5 0 10 -3 12 -8 2 -4 35 -29 73 -56 74 -52 252 -184 271 -201
7 -5 24 -19 40 -30 34 -25 102 -79 130 -105 27 -25 39 -26 20 -2 -139 170
-122 150 -221 258 -131 142 -352 358 -471 461 -12 10 -46 38 -75 63 -29 25
-102 85 -163 133 -61 49 -119 94 -128 102 -9 7 -29 22 -45 32 -15 10 -32 23
-38 29 -29 31 -383 270 -553 373 -51 31 -105 64 -120 73 -15 10 -34 21 -42 25
-8 4 -35 19 -60 33 -25 15 -81 46 -125 70 -44 23 -95 51 -112 62 -18 11 -33
16 -33 13 0 -4 -6 -2 -14 5 -14 11 -291 150 -300 150 -3 0 -33 13 -68 29 -137
63 -183 83 -217 95 -20 8 -93 36 -163 64 -126 51 -289 111 -318 117 -8 2 -32
11 -52 19 -21 9 -38 13 -38 10 0 -4 -6 -2 -12 3 -7 6 -62 25 -123 42 -60 18
-117 35 -125 38 -8 3 -19 7 -25 8 -5 2 -30 8 -55 16 -25 7 -49 14 -55 15 -5 1
-37 10 -70 19 -33 9 -67 18 -75 20 -8 2 -53 13 -100 25 -47 12 -98 23 -115 26
-16 3 -37 7 -45 10 -8 3 -26 8 -40 10 -14 2 -36 7 -50 11 -14 3 -28 6 -31 5
-4 -1 -21 3 -39 8 -18 5 -49 12 -69 15 -20 3 -48 8 -61 10 -14 3 -38 8 -55 10
-16 3 -55 10 -85 15 -30 5 -71 12 -90 14 -46 6 -109 16 -140 21 -14 3 -47 7
-75 10 -27 3 -66 8 -85 11 -19 3 -55 7 -80 9 -45 4 -118 12 -195 20 -39 5
-130 11 -290 22 -95 6 -841 13 -846 8z"/>
<path d="M11534 8974 c-82 -40 -86 -158 -7 -209 52 -34 113 -25 158 24 22 25
27 42 27 88 -1 85 -97 137 -178 97z"/>
<path d="M13045 8972 c-60 -38 -78 -97 -49 -158 27 -58 103 -85 160 -58 43 21
66 57 69 110 6 92 -102 155 -180 106z"/>
<path d="M8667 8973 c-2 -1 -23 -5 -47 -8 -25 -3 -69 -12 -97 -20 -29 -9 -54
-14 -55 -13 -4 3 -70 -35 -86 -49 -7 -7 -18 -13 -23 -13 -19 0 -119 -114 -148
-169 -27 -53 -52 -125 -67 -196 -17 -84 -12 -295 11 -404 48 -238 211 -395
455 -440 65 -11 258 -6 315 9 22 6 47 12 57 15 51 12 140 67 194 120 68 67
101 120 133 213 47 139 60 391 26 512 -2 8 -6 26 -9 40 -20 114 -120 256 -223
317 -54 31 -139 64 -178 68 -16 2 -30 4 -30 5 0 6 -223 18 -228 13z m173 -37
c85 -19 170 -100 201 -191 7 -22 17 -46 23 -53 5 -7 6 -15 3 -18 -3 -3 -1 -17
4 -31 16 -42 24 -158 23 -338 0 -199 -7 -265 -40 -374 -10 -31 -17 -59 -16
-63 1 -5 -1 -8 -6 -8 -4 0 -13 -13 -20 -29 -27 -61 -121 -133 -192 -149 -25
-5 -113 -4 -149 2 -120 19 -213 124 -250 281 -6 28 -14 61 -18 75 -10 41 -12
509 -2 516 5 3 7 9 4 14 -7 11 20 133 36 170 57 125 112 176 219 199 42 9 131
7 180 -3z"/>
<path d="M175 8962 c-1 -2 -41 -3 -89 -3 -66 0 -86 -3 -86 -14 0 -14 98 -26
106 -13 8 12 34 -3 34 -19 0 -8 6 -29 14 -46 7 -18 20 -50 29 -72 14 -36 194
-529 219 -600 5 -16 14 -39 19 -50 5 -11 46 -123 92 -250 83 -227 85 -230 114
-233 22 -2 32 2 36 15 3 10 22 63 42 118 75 207 116 320 118 330 2 6 5 15 8
20 9 15 33 89 30 94 -2 2 1 7 6 10 7 5 28 55 37 86 2 6 6 17 9 25 3 8 20 55
38 104 31 85 33 88 42 60 5 -16 20 -58 34 -94 13 -36 33 -87 43 -115 10 -27
41 -111 69 -185 168 -454 174 -468 193 -473 20 -6 50 20 54 45 1 7 16 54 34
103 17 50 33 95 34 100 2 6 6 17 9 25 8 19 97 280 103 300 2 8 24 74 50 145
25 72 47 135 48 140 1 6 4 15 8 20 3 6 12 30 19 55 16 56 15 52 22 70 15 36
29 77 33 96 2 12 11 35 19 50 8 16 15 34 15 39 0 6 12 26 28 44 22 26 37 34
74 38 59 7 76 34 19 31 -21 0 -43 2 -49 6 -6 3 -13 2 -16 -3 -4 -5 -18 -6 -34
-2 -15 5 -36 5 -47 1 -11 -4 -32 -4 -46 0 -15 4 -32 4 -39 0 -7 -5 -22 -5 -33
-1 -28 10 -67 1 -67 -15 0 -12 59 -21 94 -15 5 1 21 -3 36 -9 37 -15 53 -52
39 -87 -6 -16 -10 -28 -9 -28 2 0 -6 -24 -48 -145 -22 -63 -58 -169 -81 -235
-22 -66 -61 -178 -86 -250 -26 -71 -48 -138 -50 -147 -2 -10 -8 -25 -14 -35
-10 -19 -7 -25 -44 72 -9 22 -43 117 -77 210 -34 94 -65 179 -70 190 -15 36
-71 190 -75 207 -2 9 -9 27 -16 40 -7 13 -11 23 -10 23 3 0 3 -3 -38 113 l-30
82 22 1 c12 1 51 0 87 0 61 -2 64 -1 48 15 -14 14 -38 17 -163 16 -81 0 -149
-3 -152 -6 -3 -2 -15 -1 -27 4 -13 4 -29 5 -36 0 -7 -5 -23 -5 -34 0 -12 4
-30 4 -41 0 -11 -4 -31 -4 -45 0 -31 9 -50 3 -50 -16 0 -11 17 -14 73 -14 l73
0 16 -47 c22 -65 39 -112 53 -148 13 -31 39 -106 40 -115 0 -3 3 -10 7 -15 3
-6 -13 -62 -38 -125 -24 -63 -44 -117 -45 -120 -1 -3 -5 -15 -10 -28 -5 -13
-9 -29 -9 -36 0 -6 -4 -16 -8 -21 -5 -6 -19 -39 -31 -75 -12 -36 -26 -74 -31
-85 -17 -41 -35 -90 -36 -102 -1 -6 -6 -19 -12 -28 -8 -15 -11 -13 -21 16 -6
19 -11 35 -11 37 0 1 -7 16 -15 32 -8 16 -15 31 -15 32 1 4 11 -22 -101 283
-50 138 -92 255 -93 260 -1 6 -7 19 -13 30 -6 11 -18 45 -28 75 -10 30 -22 61
-28 68 -5 6 -7 12 -4 12 4 0 -3 21 -13 46 -25 57 -25 56 3 54 12 -1 25 -1 30
0 18 5 75 3 84 -3 12 -7 23 1 23 18 0 13 -11 15 -100 14 -105 0 -142 0 -203 3
-32 2 -60 2 -62 0z"/>
<path d="M3169 8853 c0 -10 -2 -25 -4 -33 -3 -8 -6 -22 -8 -30 -36 -138 -134
-235 -248 -244 -68 -5 -65 -4 -51 -18 7 -7 36 -12 65 -13 l52 0 5 -340 c3
-187 7 -347 10 -355 40 -120 146 -182 284 -166 100 13 160 69 172 164 6 47
-22 43 -31 -5 -9 -49 -20 -70 -49 -88 -52 -35 -118 -26 -145 18 -18 28 -23
140 -20 430 0 9 0 55 -1 101 -1 45 0 87 1 92 1 5 1 11 0 14 -1 3 -3 35 -4 71
l-2 67 98 -2 c101 -1 127 3 130 19 1 6 -44 10 -108 11 l-110 1 -5 158 c-4 114
-8 160 -17 163 -7 2 -13 -5 -14 -15z"/>
<path d="M10979 8848 c-3 -100 -74 -223 -154 -269 -44 -26 -50 -27 -112 -31
-24 -2 -45 -9 -48 -15 -4 -13 6 -16 60 -15 76 2 70 31 69 -330 0 -334 3 -372
43 -438 17 -29 68 -69 107 -83 70 -26 194 -14 248 25 34 24 67 89 68 131 0 44
-27 33 -33 -15 -8 -59 -52 -101 -110 -104 -52 -3 -79 19 -94 76 -5 19 -9 193
-9 385 l1 350 107 1 c60 0 108 3 108 7 0 4 0 11 0 15 0 5 -37 9 -82 9 -46 0
-95 1 -109 2 l-26 1 1 151 c1 83 -1 154 -4 157 -12 16 -30 10 -31 -10z"/>
<path d="M2197 8563 c-4 -3 -27 -8 -51 -9 -52 -4 -142 -37 -172 -62 -24 -20
-47 -58 -51 -86 -2 -11 -5 -22 -7 -24 -2 -2 2 -23 11 -47 11 -33 23 -47 51
-61 45 -21 109 -29 159 -19 l38 8 -35 14 c-34 15 -51 33 -58 63 -18 79 10 153
67 178 46 19 141 18 181 -3 49 -25 62 -70 64 -222 1 -73 0 -137 -3 -141 -4 -4
-37 -7 -76 -7 -176 -2 -325 -53 -398 -139 -75 -88 -53 -246 44 -309 73 -48
215 -57 300 -20 53 24 105 67 129 106 l18 29 12 -39 c25 -76 80 -114 175 -119
77 -4 135 27 165 87 11 21 18 39 15 39 -3 0 -1 9 4 19 8 14 7 22 -4 31 -16 14
-21 7 -29 -42 -10 -60 -65 -100 -106 -78 -24 13 -22 -15 -25 345 -4 309 -3
302 -25 355 -21 52 -56 86 -112 110 -55 24 -196 51 -203 40 -5 -8 -48 -5 -63
4 -5 3 -12 3 -15 -1z m195 -455 c2 -7 4 -67 3 -134 -1 -134 -12 -170 -65 -218
-105 -93 -210 -67 -225 56 -8 62 -2 140 13 179 14 35 61 89 78 89 8 0 14 4 14
8 0 23 174 42 182 20z"/>
<path d="M3908 8565 c-2 -3 -26 -7 -52 -10 -95 -9 -192 -71 -232 -146 -18 -35
-25 -157 -11 -208 9 -32 56 -100 78 -112 10 -5 23 -15 31 -22 19 -19 111 -53
220 -82 176 -46 228 -81 228 -153 0 -95 -94 -151 -245 -147 -166 5 -264 86
-283 232 -4 31 -13 58 -19 61 -10 3 -13 -18 -14 -80 -1 -107 -6 -196 -14 -226
-7 -29 13 -26 29 3 16 28 47 55 63 55 8 0 27 -8 41 -18 69 -46 130 -62 230
-58 79 3 88 5 158 37 90 39 154 139 154 238 0 159 -85 233 -344 301 -183 48
-231 81 -228 156 2 59 25 89 86 118 94 44 244 31 323 -27 62 -46 78 -74 92
-164 4 -29 10 -40 18 -35 7 5 12 42 14 101 1 52 6 112 11 134 5 22 7 42 4 44
-2 2 -18 -11 -36 -30 -30 -33 -70 -54 -70 -37 0 20 -97 57 -174 66 -22 3 -43
7 -47 9 -3 3 -8 2 -11 0z"/>
<path d="M4886 8563 c-3 -3 -23 -7 -44 -8 -138 -6 -274 -99 -325 -220 -49
-118 -56 -304 -16 -422 20 -57 76 -139 117 -171 32 -25 92 -57 114 -62 4 -1
30 -8 58 -15 67 -18 221 -12 285 10 192 66 280 211 277 454 -3 259 -133 406
-378 426 -37 3 -71 8 -74 10 -4 3 -10 2 -14 -2z m85 -37 c65 -12 121 -84 135
-176 18 -111 22 -223 9 -232 -7 -5 -7 -8 0 -8 11 0 11 -53 0 -165 -10 -102
-13 -113 -48 -182 -30 -60 -123 -105 -164 -80 -6 4 -14 3 -18 -2 -6 -11 -44 2
-86 31 -26 17 -69 94 -74 133 -2 11 -6 38 -10 60 -4 22 -7 103 -8 180 -2 304
39 417 160 443 39 9 43 9 104 -2z"/>
<path d="M6179 8566 c-2 -3 -25 -7 -50 -10 -100 -12 -196 -79 -235 -163 -10
-23 -22 -43 -25 -43 -4 0 -7 35 -7 78 0 42 0 86 -1 98 -1 20 -6 20 -171 20
-134 0 -170 -2 -170 -13 0 -14 1 -14 75 -17 l50 -1 0 -410 0 -410 -55 0 c-56
0 -91 -12 -72 -24 6 -3 111 -6 234 -6 192 0 223 3 226 16 2 12 -8 15 -52 14
-32 -1 -57 3 -59 9 -1 6 -2 128 -2 271 1 235 4 267 23 330 12 39 30 80 42 92
11 12 20 26 20 31 0 15 84 69 120 77 83 18 130 2 156 -54 15 -32 18 -77 19
-386 0 -192 -1 -355 -2 -361 -2 -5 -28 -9 -58 -9 -44 1 -55 -2 -55 -14 0 -14
26 -16 218 -15 267 2 252 1 246 17 -3 10 -23 13 -67 12 l-63 -1 -1 330 c0 212
-4 346 -12 372 -25 91 -106 153 -205 157 -28 1 -54 5 -57 10 -3 4 -7 5 -10 3z"/>
<path d="M7059 8566 c-2 -2 -22 -7 -43 -10 -170 -27 -253 -108 -260 -254 -2
-37 0 -71 4 -77 4 -5 13 -26 19 -45 23 -73 111 -136 241 -173 30 -9 89 -25
130 -37 137 -39 183 -80 173 -155 -10 -78 -92 -127 -216 -130 -191 -5 -298 80
-313 249 -3 42 -8 51 -22 42 -5 -3 -10 -49 -10 -103 -1 -111 -8 -198 -17 -213
-3 -5 1 -10 9 -10 9 0 16 4 16 9 0 16 51 71 65 71 8 0 35 -13 62 -29 112 -69
319 -61 421 17 97 74 134 214 85 322 -28 60 -59 91 -128 124 -43 21 -230 82
-230 75 0 -1 -20 4 -45 11 -66 18 -126 56 -140 90 -15 36 -6 97 18 124 38 41
128 70 212 67 142 -4 251 -90 262 -206 2 -25 9 -40 17 -40 10 0 14 26 17 105
4 112 6 129 17 146 7 12 -1 24 -15 24 -5 0 -13 -11 -18 -25 -5 -14 -20 -30
-34 -36 -20 -9 -34 -6 -87 20 -37 18 -87 34 -118 37 -30 2 -57 7 -61 9 -4 3
-9 3 -11 1z"/>
<path d="M10128 8564 c-3 -2 -14 -6 -25 -8 -96 -19 -169 -72 -212 -153 l-20
-38 -1 91 0 91 -169 -1 c-93 -1 -173 -4 -177 -8 -14 -15 7 -22 66 -21 37 0 60
-4 61 -11 5 -46 3 -1240 -2 -1248 -3 -5 -31 -9 -62 -9 -51 0 -78 -11 -64 -26
8 -8 464 -6 476 2 21 13 0 25 -42 24 -92 -3 -83 -34 -82 271 0 149 2 270 5
270 3 0 15 -16 28 -35 52 -80 171 -119 297 -96 160 30 263 137 302 315 9 39 9
251 1 291 -16 81 -72 186 -118 222 -20 17 -101 57 -120 60 -8 1 -40 5 -70 9
-30 3 -58 7 -61 10 -3 2 -8 1 -11 -2z m62 -64 c37 -20 83 -110 84 -165 1 -11
4 -25 8 -31 11 -17 6 -377 -5 -391 -5 -7 -7 -13 -4 -13 11 0 -24 -102 -46
-136 -33 -50 -72 -69 -144 -69 -52 0 -67 4 -103 30 -23 17 -49 44 -59 60 -9
17 -20 33 -26 37 -5 4 -7 8 -3 8 3 0 0 19 -6 43 -12 40 -14 352 -3 419 16 97
97 201 173 221 27 7 111 -1 134 -13z"/>
<path d="M12429 8566 c-3 -3 -31 -8 -61 -10 -131 -12 -236 -64 -290 -142 -98
-142 -112 -405 -31 -567 39 -78 136 -162 197 -171 6 -1 17 -5 25 -10 8 -5 56
-10 108 -11 142 -4 222 26 285 108 46 59 55 77 54 117 -1 42 -18 52 -24 14 -9
-74 -66 -150 -136 -184 -85 -41 -214 -32 -253 18 -25 31 -52 89 -58 123 -3 18
-9 37 -12 42 -3 6 -7 89 -8 186 -4 333 48 454 195 454 101 -1 162 -59 163
-156 1 -64 -20 -111 -51 -115 -32 -5 -22 -26 12 -29 16 -1 30 -4 33 -7 8 -7
96 26 115 44 18 17 47 88 42 105 -1 6 -5 22 -8 36 -7 33 -55 83 -104 108 -41
21 -157 46 -171 36 -5 -3 -11 0 -13 6 -2 5 -6 8 -9 5z"/>
<path d="M13856 8563 c-1 -2 -27 -5 -57 -8 -159 -12 -244 -66 -255 -161 -10
-88 50 -143 156 -142 25 0 56 3 70 8 23 7 24 8 5 14 -39 14 -50 23 -64 52 -26
53 -9 145 33 176 52 38 154 43 213 10 46 -25 56 -66 59 -219 l2 -143 -56 -1
c-163 -2 -318 -48 -399 -117 -58 -51 -84 -157 -56 -237 39 -116 206 -175 352
-125 72 24 96 42 161 120 11 14 19 21 18 15 -5 -25 27 -87 55 -108 50 -36 80
-46 138 -43 64 3 112 26 136 64 10 15 20 29 24 32 3 3 5 13 3 22 -1 10 2 20 7
24 5 3 5 13 -1 25 -15 27 -26 17 -34 -30 -14 -88 -105 -124 -122 -48 -4 18 -8
165 -9 327 -2 305 -4 322 -46 381 -19 27 -94 78 -121 83 -7 1 -22 5 -33 9 -29
10 -173 26 -179 20z m160 -581 c-2 -150 -8 -172 -65 -226 -16 -16 -53 -37 -81
-46 -45 -15 -55 -16 -80 -4 -52 26 -59 44 -65 158 -3 71 16 143 47 177 27 29
70 58 95 63 10 1 26 6 36 11 9 4 24 5 32 2 8 -4 17 -3 19 2 3 4 18 6 34 3 l29
-4 -1 -136z"/>
<path d="M15160 8563 c0 -4 -21 -9 -48 -9 -96 -3 -205 -77 -249 -169 -9 -19
-19 -35 -22 -35 -3 0 -6 44 -5 98 l1 98 -168 0 c-92 -1 -170 -4 -174 -8 -16
-16 8 -24 64 -21 44 2 61 -1 62 -10 0 -14 0 -788 -1 -802 0 -6 -27 -10 -62
-10 -49 0 -63 -4 -63 -15 0 -12 35 -15 233 -15 201 0 232 2 230 15 -3 11 -17
15 -58 15 l-55 0 -1 263 c-1 145 2 283 7 307 13 69 49 136 101 187 38 37 58
48 96 54 53 9 76 7 113 -7 52 -20 53 -34 56 -435 l3 -370 -56 1 c-52 2 -79
-10 -56 -24 8 -5 368 -7 445 -2 9 1 17 7 17 15 0 10 -15 13 -61 11 -52 -2 -62
1 -68 17 -7 20 -4 143 4 166 2 6 1 12 -3 12 -4 0 -7 36 -7 80 0 44 2 80 5 80
4 0 4 56 0 70 -1 3 -1 50 -1 105 0 55 -5 123 -10 152 -19 100 -93 164 -204
179 -27 3 -53 8 -57 11 -5 2 -8 1 -8 -4z"/>
<path d="M16040 8563 c0 -5 -15 -8 -33 -7 -50 3 -151 -36 -195 -75 -51 -43
-73 -91 -79 -167 -10 -115 44 -211 148 -265 41 -20 143 -54 190 -62 69 -13
176 -58 202 -87 66 -74 5 -187 -113 -209 -34 -6 -149 -6 -180 0 -44 9 -104 39
-133 67 -56 54 -74 98 -76 185 -1 29 -5 38 -17 35 -13 -2 -16 -26 -19 -148 -1
-80 -4 -151 -6 -159 -7 -24 19 -23 27 1 4 13 16 31 27 41 20 17 57 24 57 10 0
-12 90 -52 138 -62 66 -14 180 -6 242 18 59 22 140 89 140 115 0 9 4 16 9 16
15 0 32 92 27 152 -2 38 -13 72 -30 102 -44 76 -109 111 -298 162 -149 40
-200 63 -224 99 -21 33 -24 62 -8 102 28 71 99 103 221 99 87 -3 107 -7 152
-30 68 -36 110 -96 120 -176 3 -25 11 -45 16 -45 11 0 11 0 16 143 2 52 7 96
12 99 8 5 10 43 1 43 -9 0 -34 -28 -34 -38 0 -5 -11 -15 -25 -22 -22 -12 -31
-10 -87 17 -35 17 -87 34 -117 37 -29 4 -58 9 -62 12 -5 3 -9 1 -9 -3z"/>
<path d="M11360 8539 c0 -16 26 -23 77 -22 l53 0 0 -412 0 -412 -60 2 c-56 2
-81 -7 -65 -23 8 -9 454 -9 468 0 21 13 -3 22 -61 23 l-57 1 -2 194 c-1 107
-3 299 -3 426 l0 231 -175 -1 c-96 0 -175 -3 -175 -7z"/>
<path d="M12874 8539 c-8 -14 19 -22 75 -23 l56 -1 0 -410 0 -410 -60 0 c-54
0 -80 -9 -70 -25 3 -4 426 -5 472 -1 7 0 10 7 7 14 -3 9 -23 13 -64 11 -38 -1
-60 3 -61 10 -1 6 -3 193 -4 416 -1 223 -3 410 -4 416 -1 12 -339 15 -347 3z"/>
<path d="M14203 6802 c-17 -15 -46 -38 -64 -52 -18 -14 -37 -30 -43 -35 -6 -6
-27 -22 -46 -35 -19 -13 -37 -27 -40 -30 -3 -3 -21 -17 -40 -30 -19 -13 -37
-27 -40 -30 -5 -7 -94 -70 -180 -128 -30 -20 -57 -40 -60 -43 -3 -3 -39 -27
-80 -54 -41 -27 -78 -53 -82 -59 -5 -7 -8 -7 -8 -1 0 6 -3 6 -8 -1 -4 -6 -36
-28 -72 -50 -36 -21 -67 -41 -70 -45 -3 -3 -12 -9 -20 -12 -8 -4 -27 -15 -42
-25 -14 -9 -64 -39 -110 -67 -45 -27 -96 -57 -113 -67 -16 -10 -41 -24 -55
-30 -14 -7 -27 -15 -30 -18 -3 -3 -23 -14 -45 -25 -22 -11 -42 -23 -45 -26
-22 -26 -795 -409 -824 -409 -3 0 -29 -11 -58 -24 -113 -51 -380 -156 -538
-211 -58 -20 -127 -45 -155 -55 -42 -16 -219 -72 -235 -75 -3 0 -39 -11 -80
-25 -41 -13 -84 -25 -95 -27 -11 -2 -31 -7 -45 -13 -21 -8 -92 -27 -125 -34
-5 -2 -30 -8 -55 -15 -44 -13 -57 -16 -102 -26 -24 -5 -79 -18 -88 -20 -3 -1
-12 -4 -20 -8 -8 -3 -32 -9 -54 -12 -21 -3 -42 -7 -46 -10 -4 -2 -22 -7 -41
-9 -19 -3 -61 -12 -94 -20 -33 -8 -73 -17 -90 -19 -16 -3 -55 -10 -85 -17 -30
-6 -71 -13 -90 -16 -44 -8 -65 -12 -65 -14 0 -1 -18 -3 -40 -6 -41 -4 -80 -11
-80 -14 0 -1 -13 -3 -30 -5 -61 -8 -111 -15 -130 -19 -22 -4 -81 -12 -160 -22
-27 -3 -59 -8 -70 -10 -11 -3 -47 -7 -80 -9 -33 -3 -76 -7 -95 -9 -69 -8 -194
-20 -322 -30 -339 -27 -1247 -27 -1473 0 -27 3 -81 8 -120 10 -75 5 -150 12
-150 14 0 1 -27 3 -60 6 -33 2 -76 6 -95 9 -19 3 -57 8 -85 11 -27 3 -61 7
-75 10 -14 2 -47 7 -75 9 -27 3 -59 7 -71 10 -12 3 -39 7 -60 10 -46 7 -268
44 -304 51 -14 2 -41 7 -60 10 -19 3 -38 8 -41 9 -3 2 -28 7 -55 11 -27 3 -59
10 -72 15 -12 5 -26 8 -30 8 -4 -1 -9 0 -12 1 -3 1 -14 3 -25 5 -11 2 -31 6
-45 9 -14 4 -40 9 -59 12 -19 3 -46 10 -60 16 -14 5 -27 9 -28 9 -2 -1 -4 -1
-5 0 -2 0 -14 3 -28 5 -72 13 -352 88 -560 150 -30 9 -59 17 -65 19 -5 1 -17
5 -25 8 -8 3 -64 22 -125 41 -196 63 -314 104 -402 142 -17 8 -35 14 -39 14
-8 0 -212 80 -281 111 -24 11 -45 19 -48 19 -2 0 -34 14 -70 30 -36 16 -67 30
-70 30 -27 0 -799 388 -845 425 -8 6 -31 19 -50 29 -19 9 -44 22 -54 29 -108
68 -157 97 -161 97 -11 0 -382 244 -515 338 -101 72 -173 125 -180 132 -3 3
-18 14 -35 24 l-30 19 26 -29 c15 -16 48 -54 75 -84 73 -81 349 -356 427 -425
38 -33 79 -69 91 -80 27 -24 108 -92 186 -155 177 -143 526 -387 725 -507 69
-41 257 -150 290 -168 22 -12 67 -37 100 -55 68 -37 357 -184 365 -185 3 -1
41 -18 85 -39 179 -84 531 -232 577 -241 9 -2 25 -8 35 -13 10 -5 74 -28 143
-51 152 -52 154 -52 157 -52 2 0 22 -7 45 -15 24 -9 50 -17 58 -19 8 -2 62
-18 120 -35 58 -17 112 -33 120 -35 151 -39 309 -79 363 -90 37 -8 100 -22
140 -31 39 -9 83 -18 97 -20 14 -2 39 -7 55 -11 46 -10 57 -12 100 -18 22 -3
63 -10 90 -15 56 -11 77 -14 190 -30 44 -6 96 -13 115 -16 19 -3 53 -7 75 -10
55 -5 122 -12 168 -18 21 -3 70 -8 110 -11 40 -3 93 -8 119 -10 129 -14 289
-18 663 -18 423 0 537 4 795 28 100 10 236 24 280 30 19 3 55 7 80 10 73 9
114 15 139 20 13 2 49 7 80 11 31 3 58 8 61 9 3 2 26 6 50 10 38 5 293 52 325
60 6 1 21 5 35 8 31 7 157 36 185 42 16 3 319 84 375 99 8 3 46 14 84 26 38
12 77 23 88 25 10 2 23 7 28 10 5 3 18 8 27 10 17 4 67 20 108 36 11 4 49 17
85 30 298 103 668 258 925 387 55 27 104 50 109 50 5 0 12 4 15 9 3 4 40 26
81 47 41 22 91 49 111 60 39 22 139 79 199 113 108 62 515 330 543 357 7 7 23
18 35 25 13 7 31 19 40 26 9 8 71 56 137 107 127 98 140 108 185 148 15 14 45
39 66 55 21 17 59 48 84 70 24 22 65 58 90 80 25 22 126 122 225 221 160 162
207 211 272 290 10 12 36 43 58 69 38 45 60 75 53 75 -2 0 -17 -13 -35 -28z"/>
</g>
</svg>
